<svg id="Capa_1" enable-background="new 0 0 512.001 512.001" height="512" viewBox="0 0 512.001 512.001" width="512" xmlns="http://www.w3.org/2000/svg"><g><g><circle cx="256" cy="256" fill="#cbe2ff" r="248.482"/></g><g><path d="m399.974 53.458c28.925 40.619 45.939 90.309 45.939 143.974 0 137.233-111.249 248.482-248.482 248.482-53.665 0-103.355-17.014-143.974-45.939 45.044 63.252 118.975 104.507 202.543 104.507 137.233 0 248.482-111.249 248.482-248.482 0-83.568-41.255-157.499-104.508-202.542z" fill="#bed8fb"/></g><g><path d="m370.791 380.655h-229.581c-33.847 0-61.286-27.439-61.286-61.286v-128.382c0-33.847 27.439-61.286 61.286-61.286h229.581c33.847 0 61.286 27.439 61.286 61.286v128.383c-.001 33.847-27.439 61.285-61.286 61.285z" fill="#f4fbff"/></g><g><path d="m399.048 136.668c4.441 8.498 6.966 18.156 6.966 28.409v150.801c0 21.382-17.333 38.715-38.715 38.715h-251.999c-10.253 0-19.911-2.525-28.409-6.967 10.257 19.625 30.793 33.029 54.471 33.029h229.277c33.931 0 61.438-27.507 61.438-61.438v-128.078c-.001-23.678-13.404-44.214-33.029-54.471z" fill="#e4f6ff"/></g><g><path d="m483.49 138.478c-18.047-34.864-44.348-65.608-76.06-88.909-3.345-2.457-8.051-1.74-10.51 1.607-2.458 3.346-1.739 8.051 1.608 10.51 59.612 43.801 95.985 113.185 98.313 186.795h-57.244v-57.343c0-33.225-23.621-61.034-54.952-67.523-12.687-35.975-30.462-66.249-51.568-87.698-4.509-4.582-9.154-8.736-13.91-12.466 17.581 4.758 34.6 11.489 50.636 20.098 3.659 1.963 8.218.59 10.181-3.068 1.964-3.659.59-8.217-3.068-10.181-36.927-19.823-78.738-30.3-120.916-30.3-68.38 0-132.668 26.628-181.02 74.98s-74.98 112.64-74.98 181.02c0 25.956 3.873 51.568 11.51 76.125 1.002 3.222 3.972 5.287 7.178 5.287.739 0 1.492-.11 2.235-.342 3.965-1.233 6.179-5.447 4.946-9.412-6.449-20.735-10.036-42.278-10.706-64.14h57.243v55.699c0 33.003 23.31 60.65 54.327 67.379 12.629 36.481 30.453 67.203 51.706 88.989 4.628 4.743 9.399 9.033 14.288 12.876-68.138-18.626-126.137-66.722-156.199-132.842-1.718-3.778-6.172-5.453-9.956-3.732-3.78 1.718-5.451 6.175-3.732 9.956 20.072 44.149 52.165 81.594 92.809 108.287 41.708 27.392 90.241 41.87 140.352 41.87 68.38 0 132.668-26.629 181.02-74.981s74.979-112.639 74.979-181.019c0-40.849-9.859-81.488-28.51-117.522zm-115.375-16.295h-104.596v-106.757c20.597 2.087 40.795 12.706 58.838 31.039 18.32 18.616 34.018 44.658 45.758 75.718zm-119.633 0h-104.595c11.741-31.064 27.441-57.108 45.764-75.725 18.04-18.329 38.237-28.946 58.831-31.032zm-233.316 126.298c3.319-107.708 77.66-197.831 177.664-225.026-4.751 3.726-9.392 7.877-13.897 12.454-21.111 21.449-38.888 51.726-51.576 87.705-31.33 6.489-54.952 34.298-54.952 67.523v57.343h-57.239zm72.277 70.737v-128.08c0-29.731 24.188-53.918 53.918-53.918h229.277c29.732 0 53.919 24.188 53.919 53.918v128.079c0 29.731-24.188 53.918-53.919 53.918h-229.276c-29.731.001-53.919-24.186-53.919-53.917zm55.807 68.955h105.232v108.399c-42.296-4.313-81.611-44.768-105.232-108.399zm175.921 100.372c20.675-16.225 39.104-40.467 53.784-71.56 1.773-3.755.165-8.236-3.589-10.009-3.753-1.773-8.236-.166-10.009 3.589-24.283 51.435-58.876 82.319-95.837 86.021v-108.413h107.119c38.023 0 68.957-30.933 68.957-68.956v-55.699h57.24c-3.32 107.708-77.662 197.832-177.665 225.027z"/><path d="m253.944 212.393h100.841c-7.94 15.535-19.375 32.347-32.885 48.224-1.26 1.48-2.534 2.938-3.814 4.384-5.979-7.144-11.032-14.331-14.745-21.053-2.006-3.633-6.582-4.956-10.217-2.945-3.634 2.008-4.953 6.582-2.945 10.217 4.411 7.986 10.456 16.496 17.584 24.853-11.969 12.181-24.359 22.587-35.983 30.113-3.486 2.258-4.482 6.913-2.225 10.398 2.272 3.514 6.961 4.463 10.398 2.225 12.339-7.99 25.412-18.918 37.997-31.654.759.767 1.525 1.53 2.299 2.288 12.583 12.324 26.376 22.719 38.839 29.271 3.601 1.915 8.212.555 10.153-3.157 1.933-3.675.519-8.221-3.157-10.153-11.204-5.89-23.745-15.373-35.313-26.703-.849-.832-1.686-1.671-2.514-2.513 1.714-1.916 3.418-3.853 5.096-5.826 16.215-19.055 29.672-39.528 38.146-57.968h15.99c4.153 0 7.519-3.366 7.519-7.519s-3.366-7.519-7.519-7.519h-60.549v-28.657c0-4.153-3.366-7.519-7.519-7.519s-7.519 3.366-7.519 7.519v28.657h-57.957c-4.153 0-7.519 3.366-7.519 7.519-.001 4.152 3.365 7.518 7.518 7.518z"/><path d="m210.005 297.755 9.464 25.078c1.466 3.885 5.805 5.846 9.689 4.379 3.885-1.466 5.846-5.803 4.379-9.689l-45.371-120.224c-.025-.069-.052-.136-.08-.204-1.592-3.872-5.324-6.372-9.509-6.372-.003 0-.006 0-.009 0-4.189.003-7.922 2.511-9.509 6.388-.023.057-.046.115-.068.172l-45.786 120.219c-1.478 3.88.47 8.223 4.351 9.702 3.779 1.47 8.227-.431 9.702-4.351l9.559-25.098zm-31.45-83.335 25.775 68.298h-51.786z"/></g></g></svg>