<svg id="Layer_1" data-name="Layer 1" xmlns="http://www.w3.org/2000/svg" xmlns:xlink="http://www.w3.org/1999/xlink" viewBox="0 0 512 512"><defs><style>.cls-1,.cls-4{fill:#fff;}.cls-2{fill:url(#New_Gradient_Swatch_1);}.cls-3{fill:#13236a;}.cls-4{opacity:0.4;}</style><linearGradient id="New_Gradient_Swatch_1" x1="179.34" y1="256" x2="332.66" y2="256" gradientUnits="userSpaceOnUse"><stop offset="0" stop-color="#13236a"/><stop offset="1" stop-color="#1323b1"/></linearGradient></defs><rect class="cls-1" width="512" height="512"/><rect class="cls-2" x="179.34" y="179.34" width="153.32" height="153.32" rx="38.09"/><path class="cls-3" d="M217,365.9V352.69h2.54l5.88,9.43v-9.43h2.32V365.9h-2.53l-5.88-9.44v9.44Z"/><path class="cls-3" d="M230.67,362.87v-4c0-2,1-3,3-3h2.49c2,0,3,1,3,3v2.87h-6.28v1.32a.78.78,0,0,0,.88.88h5v1.21l-1,.75h-4.1C231.67,365.9,230.67,364.89,230.67,362.87Zm2.24-2.93H237v-1.26a.79.79,0,0,0-.89-.9h-2.28a.79.79,0,0,0-.88.9Z"/><path class="cls-3" d="M240.91,356.19l.25-.34H243l1.71,8.09h.19l2-8.09h2.58l2.05,8.09h.19l1.71-8.09h1.87l.25.34-2.14,9.71H250.1l-1.84-7.55-1.82,7.55h-3.39Z"/><path class="cls-3" d="M261.22,353.15l.33-.46h1.91l2.34,11.1h.25l2.5-9.76h2.28l2.51,9.76h.25l2.33-11.1h1.92l.32.46-2.75,12.75h-3.76l-2-7.8-1.95,7.8H264Z"/><path class="cls-3" d="M282.07,365.9q-3,0-3-3t3-3h3v-1.24a.8.8,0,0,0-.9-.9h-4.06v-1.19l1-.74h3.18c2,0,3,1,3,3v7Zm-.79-2.84a.78.78,0,0,0,.88.88H285v-2.22h-2.88a.78.78,0,0,0-.88.88Z"/><path class="cls-3" d="M289,356.19l.23-.34h1.91l2.55,8.09h.27l2.54-8.09h1.94l.23.34-4.41,13.54h-1.91l-.23-.35,1.19-3.48h-1.15Z"/><path class="cls-1" d="M309.71,239.09l-20.94,45a4.41,4.41,0,0,1-3.91,2.48H271.09a4.31,4.31,0,0,1-3.93-2.54l-9.05-20.18a5.93,5.93,0,0,1-.49-2.35V256.3a.58.58,0,0,1,.77-.55l9.57,3.13a.37.37,0,0,0,.36-.63L257.62,249v-4.5a1.49,1.49,0,0,0-1.49-1.49h-.3a1.49,1.49,0,0,0-1.49,1.49V249l-10.7,9.25a.37.37,0,0,0,.36.63l9.57-3.13a.59.59,0,0,1,.77.55v5.25a5.93,5.93,0,0,1-.49,2.35l-9.52,21.22a2.39,2.39,0,0,1-2.17,1.41H227.84a2.38,2.38,0,0,1-2.18-3.32l19.78-43.61A6,6,0,0,1,251,236H261a6,6,0,0,1,5.52,3.64l9.73,20.13a1.82,1.82,0,0,0,3.35,0l10.24-23.91a4,4,0,0,1,3.7-2.44h12.5A4,4,0,0,1,309.71,239.09Z"/><path class="cls-4" d="M202.29,239.09l16.56,37.16,10-22-6.74-18.43a4,4,0,0,0-3.7-2.44h-12.5A4,4,0,0,0,202.29,239.09Z"/></svg>