<svg id="Layer_1" data-name="Layer 1" xmlns="http://www.w3.org/2000/svg" xmlns:xlink="http://www.w3.org/1999/xlink" viewBox="0 0 512 512"><defs><style>.cls-1{fill:url(#New_Gradient_Swatch_1);}.cls-2,.cls-3{fill:#fff;}.cls-3{opacity:0.4;}</style><linearGradient id="New_Gradient_Swatch_1" y1="256" x2="512" y2="256" gradientUnits="userSpaceOnUse"><stop offset="0" stop-color="#13236a"/><stop offset="1" stop-color="#1323b1"/></linearGradient></defs><rect class="cls-1" width="512" height="512"/><path class="cls-2" d="M210.5,306.23V290.81h3l6.86,11v-11H223v15.42h-2.95l-6.86-11v11Z"/><path class="cls-2" d="M226.43,302.7V298q0-3.52,3.53-3.53h2.91q3.51,0,3.51,3.53v3.35h-7.33v1.54a.9.9,0,0,0,1,1h5.86v1.41l-1.19.87H230Q226.44,306.23,226.43,302.7Zm2.62-3.42h4.73v-1.47a.93.93,0,0,0-1.05-1.05h-2.66a.92.92,0,0,0-1,1.05Z"/><path class="cls-2" d="M238.39,294.9l.29-.4h2.19l2,9.45h.23l2.39-9.45h3l2.39,9.45h.22l2-9.45h2.19l.29.4-2.5,11.33h-4l-2.14-8.8-2.13,8.8h-4Z"/><path class="cls-2" d="M262.09,291.35l.38-.54h2.24l2.72,13h.29l2.93-11.39h2.66l2.93,11.39h.29l2.72-13h2.24l.38.54-3.22,14.88h-4.38l-2.3-9.09-2.28,9.09h-4.38Z"/><path class="cls-2" d="M286.42,306.23q-3.53,0-3.53-3.49t3.53-3.48h3.47v-1.45a.93.93,0,0,0-1.05-1.05H284.1v-1.39l1.16-.87H289q3.51,0,3.51,3.53v8.2Zm-.91-3.31a.91.91,0,0,0,1,1h3.35v-2.59h-3.35a.91.91,0,0,0-1,1Z"/><path class="cls-2" d="M294.49,294.9l.27-.4H297l3,9.45h.32l3-9.45h2.26l.26.4-5.13,15.8H298.4l-.27-.4,1.39-4.07h-1.34Z"/><path class="cls-2" d="M318.69,220.68l-24.44,52.47a4.87,4.87,0,0,1-.59,1,5,5,0,0,1-4,1.95H273.62a5,5,0,0,1-4.59-3l-10.56-23.55a6.81,6.81,0,0,1-.58-2.74v-6a.68.68,0,0,1,.9-.65L270,243.78a.43.43,0,0,0,.42-.74l-12.49-10.79V227a1.74,1.74,0,0,0-1.73-1.73h-.36a1.73,1.73,0,0,0-1.73,1.73v5.26L241.58,243a.43.43,0,0,0,.42.74l11.17-3.66a.69.69,0,0,1,.9.65v6.12a6.85,6.85,0,0,1-.58,2.75l-11.11,24.77a2.77,2.77,0,0,1-2.53,1.64H223.14a2.78,2.78,0,0,1-2.55-3.87l23.09-50.9a7,7,0,0,1,6.45-4.26h11.75a7,7,0,0,1,6.44,4.25l11.35,23.5a2.13,2.13,0,0,0,3.91,0l11.95-27.92a4.7,4.7,0,0,1,4.32-2.85h14.59A4.7,4.7,0,0,1,318.69,220.68Z"/><path class="cls-3" d="M193.31,220.68l19.33,43.37,11.69-25.69-7.86-21.51a4.7,4.7,0,0,0-4.32-2.85H197.56A4.7,4.7,0,0,0,193.31,220.68Z"/></svg>