<svg id="Layer_1" data-name="Layer 1" xmlns="http://www.w3.org/2000/svg" xmlns:xlink="http://www.w3.org/1999/xlink" viewBox="0 0 512 512"><defs><style>.cls-1{fill:url(#New_Gradient_Swatch_1);}.cls-2{opacity:0.4;fill:url(#New_Gradient_Swatch_1-2);}</style><linearGradient id="New_Gradient_Swatch_1" x1="154.83" y1="256" x2="435.22" y2="256" gradientUnits="userSpaceOnUse"><stop offset="0" stop-color="#13236a"/><stop offset="1" stop-color="#1323b1"/></linearGradient><linearGradient id="New_Gradient_Swatch_1-2" x1="76.78" y1="238.96" x2="166.11" y2="238.96" xlink:href="#New_Gradient_Swatch_1"/></defs><path class="cls-1" d="M434,186.89l-69.38,149a13.54,13.54,0,0,1-1.67,2.7,14.22,14.22,0,0,1-11.27,5.53H306a14.27,14.27,0,0,1-13-8.43l-30-66.85a19.29,19.29,0,0,1-1.64-7.78V243.92a1.92,1.92,0,0,1,2.55-1.84l31.71,10.39a1.23,1.23,0,0,0,1.19-2.11l-35.45-30.63V204.8a4.91,4.91,0,0,0-4.92-4.91h-1a4.91,4.91,0,0,0-4.91,4.91v14.93l-35.46,30.63a1.24,1.24,0,0,0,1.2,2.11L248,242.08a2,2,0,0,1,2.55,1.84v17.37a19.44,19.44,0,0,1-1.65,7.81l-31.53,70.32a7.88,7.88,0,0,1-7.19,4.65H162.71a7.88,7.88,0,0,1-7.24-11L221,188.58a19.94,19.94,0,0,1,18.31-12.09h33.35A19.92,19.92,0,0,1,291,188.55l32.25,66.71a6,6,0,0,0,11.08,0L368.21,176a13.33,13.33,0,0,1,12.26-8.09h41.42A13.32,13.32,0,0,1,434,186.89Z"/><path class="cls-2" d="M78.05,186.89,132.9,310l33.21-72.92L143.79,176a13.33,13.33,0,0,0-12.26-8.09H90.11A13.32,13.32,0,0,0,78.05,186.89Z"/></svg>