<svg id="Layer_1" data-name="Layer 1" xmlns="http://www.w3.org/2000/svg" xmlns:xlink="http://www.w3.org/1999/xlink" viewBox="0 0 512 252.63"><defs><style>.cls-1{fill:url(#New_Gradient_Swatch_1);}.cls-2{opacity:0.4;fill:url(#New_Gradient_Swatch_1-2);}</style><linearGradient id="New_Gradient_Swatch_1" x1="112.05" y1="126.32" x2="511" y2="126.32" gradientUnits="userSpaceOnUse"><stop offset="0" stop-color="#13236a"/><stop offset="1" stop-color="#1323b1"/></linearGradient><linearGradient id="New_Gradient_Swatch_1-2" x1="1" y1="102.07" x2="128.1" y2="102.07" xlink:href="#New_Gradient_Swatch_1"/></defs><path class="cls-1" d="M509.2,28,410.48,239.92a19.33,19.33,0,0,1-2.38,3.83,20.22,20.22,0,0,1-16,7.88H327.16a20.3,20.3,0,0,1-18.54-12L266,144.51a27.56,27.56,0,0,1-2.34-11.07V109.13a2.75,2.75,0,0,1,3.64-2.63l45.11,14.79a1.75,1.75,0,0,0,1.7-3L263.62,74.72V53.47a7,7,0,0,0-7-7h-1.45a7,7,0,0,0-7,7V74.72L197.74,118.3a1.75,1.75,0,0,0,1.7,3l45.11-14.79a2.79,2.79,0,0,1,3.64,2.63v24.72A27.78,27.78,0,0,1,245.85,145L201,245a11.2,11.2,0,0,1-10.22,6.62H123.26A11.22,11.22,0,0,1,113,236L206.22,30.39a28.4,28.4,0,0,1,26.06-17.21h47.46a28.35,28.35,0,0,1,26,17.17l45.88,94.91a8.57,8.57,0,0,0,15.76,0L415.66,12.51A19,19,0,0,1,433.1,1H492A19,19,0,0,1,509.2,28Z"/><path class="cls-2" d="M2.8,28,80.85,203.15,128.1,99.39,96.34,12.51A19,19,0,0,0,78.9,1H20A19,19,0,0,0,2.8,28Z"/></svg>